<svg width="742" height="101" viewBox="0 0 742 101" fill="none" xmlns="http://www.w3.org/2000/svg">
<path d="M183.816 27.895C186.896 28.973 189.309 30.667 191.054 32.977C192.799 35.2357 193.672 37.982 193.672 41.216C193.672 45.9387 191.773 49.583 187.974 52.15C184.175 54.717 178.683 56 171.496 56H142.39V2.09997H169.956C176.835 2.09997 182.071 3.38327 185.664 5.94997C189.257 8.46527 191.054 11.879 191.054 16.191C191.054 18.7577 190.412 21.0677 189.129 23.121C187.897 25.123 186.126 26.7143 183.816 27.895ZM157.482 13.111V23.506H167.954C173.087 23.506 175.654 21.7607 175.654 18.27C175.654 14.8307 173.087 13.111 167.954 13.111H157.482ZM170.264 44.989C175.603 44.989 178.272 43.1667 178.272 39.522C178.272 35.8773 175.603 34.055 170.264 34.055H157.482V44.989H170.264ZM230.906 41.678H222.59V56H207.344V2.09997H231.984C236.86 2.09997 241.095 2.92127 244.689 4.56397C248.282 6.15527 251.054 8.46527 253.005 11.494C254.955 14.4713 255.931 17.9877 255.931 22.043C255.931 25.9443 255.007 29.358 253.159 32.284C251.362 35.1587 248.77 37.4173 245.382 39.06L257.009 56H240.685L230.906 41.678ZM240.531 22.043C240.531 19.5277 239.735 17.577 238.144 16.191C236.552 14.805 234.191 14.112 231.06 14.112H222.59V29.897H231.06C234.191 29.897 236.552 29.2297 238.144 27.895C239.735 26.509 240.531 24.5583 240.531 22.043ZM306.23 45.528H283.438L279.203 56H263.649L287.442 2.09997H302.457L326.327 56H310.465L306.23 45.528ZM301.764 34.286L294.834 17.038L287.904 34.286H301.764ZM336.424 2.09997H351.67V56H336.424V2.09997ZM419.574 2.09997V56H407.023L383.23 27.279V56H368.292V2.09997H380.843L404.636 30.821V2.09997H419.574ZM455.045 57.078C450.682 57.078 446.447 56.539 442.34 55.461C438.233 54.383 434.897 52.946 432.33 51.149L437.335 39.907C439.748 41.4983 442.545 42.7817 445.728 43.757C448.911 44.7323 452.042 45.22 455.122 45.22C460.974 45.22 463.9 43.757 463.9 40.831C463.9 39.291 463.053 38.1617 461.359 37.443C459.716 36.673 457.047 35.8773 453.351 35.056C449.296 34.1833 445.908 33.2593 443.187 32.284C440.466 31.2573 438.131 29.6403 436.18 27.433C434.229 25.2257 433.254 22.2483 433.254 18.501C433.254 15.2157 434.152 12.264 435.949 9.64597C437.746 6.97667 440.415 4.87197 443.957 3.33197C447.55 1.79197 451.939 1.02197 457.124 1.02197C460.666 1.02197 464.157 1.43267 467.596 2.25397C471.035 3.02397 474.064 4.17898 476.682 5.71898L471.985 17.038C466.852 14.266 461.872 12.88 457.047 12.88C454.018 12.88 451.811 13.342 450.425 14.266C449.039 15.1387 448.346 16.2937 448.346 17.731C448.346 19.1683 449.167 20.2463 450.81 20.965C452.453 21.6837 455.096 22.428 458.741 23.198C462.848 24.0707 466.236 25.0203 468.905 26.047C471.626 27.0223 473.961 28.6137 475.912 30.821C477.914 32.977 478.915 35.9287 478.915 39.676C478.915 42.91 478.017 45.836 476.22 48.454C474.423 51.072 471.728 53.177 468.135 54.768C464.542 56.308 460.178 57.078 455.045 57.078ZM502.453 14.189H485.898V2.09997H534.177V14.189H517.699V56H502.453V14.189ZM572.061 57.078C566.363 57.078 561.23 55.872 556.661 53.459C552.144 51.046 548.576 47.7097 545.958 43.449C543.392 39.1883 542.108 34.3887 542.108 29.05C542.108 23.7113 543.392 18.9117 545.958 14.651C548.576 10.3903 552.144 7.05367 556.661 4.64097C561.23 2.22827 566.363 1.02197 572.061 1.02197C577.759 1.02197 582.867 2.22827 587.384 4.64097C591.953 7.05367 595.521 10.3903 598.087 14.651C600.705 18.9117 602.014 23.7113 602.014 29.05C602.014 34.3887 600.705 39.1883 598.087 43.449C595.521 47.7097 591.953 51.046 587.384 53.459C582.867 55.872 577.759 57.078 572.061 57.078ZM572.061 44.45C574.782 44.45 577.246 43.8083 579.453 42.525C581.661 41.2417 583.406 39.445 584.689 37.135C585.973 34.7737 586.614 32.0787 586.614 29.05C586.614 26.0213 585.973 23.352 584.689 21.042C583.406 18.6807 581.661 16.8583 579.453 15.575C577.246 14.2917 574.782 13.65 572.061 13.65C569.341 13.65 566.877 14.2917 564.669 15.575C562.462 16.8583 560.717 18.6807 559.433 21.042C558.15 23.352 557.508 26.0213 557.508 29.05C557.508 32.0787 558.15 34.7737 559.433 37.135C560.717 39.445 562.462 41.2417 564.669 42.525C566.877 43.8083 569.341 44.45 572.061 44.45ZM639.337 41.678H631.021V56H615.775V2.09997H640.415C645.291 2.09997 649.526 2.92127 653.12 4.56397C656.713 6.15527 659.485 8.46527 661.436 11.494C663.386 14.4713 664.362 17.9877 664.362 22.043C664.362 25.9443 663.438 29.358 661.59 32.284C659.793 35.1587 657.201 37.4173 653.813 39.06L665.44 56H649.116L639.337 41.678ZM648.962 22.043C648.962 19.5277 648.166 17.577 646.575 16.191C644.983 14.805 642.622 14.112 639.491 14.112H631.021V29.897H639.491C642.622 29.897 644.983 29.2297 646.575 27.895C648.166 26.509 648.962 24.5583 648.962 22.043ZM727.212 56L727.058 27.433L713.198 50.687H706.422L692.639 28.203V56H678.548V2.09997H691.099L710.041 33.208L728.521 2.09997H741.072L741.226 56H727.212Z" fill="#0A55EE"/>
<path d="M163.02 81.47H167.325V91.235C166.065 92.238 164.595 93.008 162.915 93.545C161.235 94.082 159.508 94.35 157.735 94.35C155.238 94.35 152.987 93.813 150.98 92.74C148.973 91.643 147.398 90.138 146.255 88.225C145.112 86.312 144.54 84.153 144.54 81.75C144.54 79.347 145.112 77.188 146.255 75.275C147.398 73.362 148.973 71.868 150.98 70.795C153.01 69.698 155.285 69.15 157.805 69.15C159.858 69.15 161.725 69.488 163.405 70.165C165.085 70.842 166.497 71.833 167.64 73.14L164.77 75.94C162.903 74.073 160.652 73.14 158.015 73.14C156.288 73.14 154.748 73.502 153.395 74.225C152.065 74.948 151.015 75.963 150.245 77.27C149.498 78.577 149.125 80.07 149.125 81.75C149.125 83.383 149.498 84.853 150.245 86.16C151.015 87.467 152.065 88.493 153.395 89.24C154.748 89.987 156.277 90.36 157.98 90.36C159.893 90.36 161.573 89.94 163.02 89.1V81.47ZM192.156 68.03H196.531V94H192.156V68.03ZM229.923 94.245C228.033 94.245 226.33 93.837 224.813 93.02C223.297 92.203 222.107 91.072 221.243 89.625C220.403 88.155 219.983 86.498 219.983 84.655C219.983 82.812 220.403 81.167 221.243 79.72C222.107 78.273 223.297 77.142 224.813 76.325C226.33 75.508 228.033 75.1 229.923 75.1C231.837 75.1 233.552 75.508 235.068 76.325C236.585 77.142 237.763 78.273 238.603 79.72C239.467 81.167 239.898 82.812 239.898 84.655C239.898 86.498 239.467 88.155 238.603 89.625C237.763 91.072 236.585 92.203 235.068 93.02C233.552 93.837 231.837 94.245 229.923 94.245ZM229.923 90.5C231.533 90.5 232.863 89.963 233.913 88.89C234.963 87.817 235.488 86.405 235.488 84.655C235.488 82.905 234.963 81.493 233.913 80.42C232.863 79.347 231.533 78.81 229.923 78.81C228.313 78.81 226.983 79.347 225.933 80.42C224.907 81.493 224.393 82.905 224.393 84.655C224.393 86.405 224.907 87.817 225.933 88.89C226.983 89.963 228.313 90.5 229.923 90.5ZM273.692 75.1C275.512 75.1 277.134 75.497 278.557 76.29C280.004 77.083 281.135 78.203 281.952 79.65C282.769 81.097 283.177 82.765 283.177 84.655C283.177 86.545 282.769 88.225 281.952 89.695C281.135 91.142 280.004 92.262 278.557 93.055C277.134 93.848 275.512 94.245 273.692 94.245C272.409 94.245 271.23 94.023 270.157 93.58C269.107 93.137 268.22 92.472 267.497 91.585V94H263.332V68.03H267.707V77.585C268.454 76.768 269.329 76.15 270.332 75.73C271.359 75.31 272.479 75.1 273.692 75.1ZM273.202 90.5C274.812 90.5 276.13 89.963 277.157 88.89C278.207 87.817 278.732 86.405 278.732 84.655C278.732 82.905 278.207 81.493 277.157 80.42C276.13 79.347 274.812 78.81 273.202 78.81C272.152 78.81 271.207 79.055 270.367 79.545C269.527 80.012 268.862 80.688 268.372 81.575C267.882 82.462 267.637 83.488 267.637 84.655C267.637 85.822 267.882 86.848 268.372 87.735C268.862 88.622 269.527 89.31 270.367 89.8C271.207 90.267 272.152 90.5 273.202 90.5ZM313.477 75.1C316.23 75.1 318.33 75.765 319.777 77.095C321.247 78.402 321.982 80.385 321.982 83.045V94H317.852V91.725C317.315 92.542 316.545 93.172 315.542 93.615C314.562 94.035 313.372 94.245 311.972 94.245C310.572 94.245 309.347 94.012 308.297 93.545C307.247 93.055 306.43 92.39 305.847 91.55C305.287 90.687 305.007 89.718 305.007 88.645C305.007 86.965 305.625 85.623 306.862 84.62C308.122 83.593 310.093 83.08 312.777 83.08H317.607V82.8C317.607 81.493 317.21 80.49 316.417 79.79C315.647 79.09 314.492 78.74 312.952 78.74C311.902 78.74 310.863 78.903 309.837 79.23C308.833 79.557 307.982 80.012 307.282 80.595L305.567 77.41C306.547 76.663 307.725 76.092 309.102 75.695C310.478 75.298 311.937 75.1 313.477 75.1ZM312.882 91.06C313.978 91.06 314.947 90.815 315.787 90.325C316.65 89.812 317.257 89.088 317.607 88.155V85.985H313.092C310.572 85.985 309.312 86.813 309.312 88.47C309.312 89.263 309.627 89.893 310.257 90.36C310.887 90.827 311.762 91.06 312.882 91.06ZM346.847 68.03H351.222V94H346.847V68.03ZM423.932 90.185V94H405.557V69.5H423.442V73.315H410.107V79.685H421.937V83.43H410.107V90.185H423.932ZM465.968 68.03V94H461.768V91.585C461.045 92.472 460.146 93.137 459.073 93.58C458.023 94.023 456.856 94.245 455.573 94.245C453.776 94.245 452.155 93.848 450.708 93.055C449.285 92.262 448.165 91.142 447.348 89.695C446.531 88.225 446.123 86.545 446.123 84.655C446.123 82.765 446.531 81.097 447.348 79.65C448.165 78.203 449.285 77.083 450.708 76.29C452.155 75.497 453.776 75.1 455.573 75.1C456.81 75.1 457.941 75.31 458.968 75.73C459.995 76.15 460.87 76.78 461.593 77.62V68.03H465.968ZM456.098 90.5C457.148 90.5 458.093 90.267 458.933 89.8C459.773 89.31 460.438 88.622 460.928 87.735C461.418 86.848 461.663 85.822 461.663 84.655C461.663 83.488 461.418 82.462 460.928 81.575C460.438 80.688 459.773 80.012 458.933 79.545C458.093 79.055 457.148 78.81 456.098 78.81C455.048 78.81 454.103 79.055 453.263 79.545C452.423 80.012 451.758 80.688 451.268 81.575C450.778 82.462 450.533 83.488 450.533 84.655C450.533 85.822 450.778 86.848 451.268 87.735C451.758 88.622 452.423 89.31 453.263 89.8C454.103 90.267 455.048 90.5 456.098 90.5ZM509.036 75.31V94H504.871V91.62C504.171 92.46 503.296 93.113 502.246 93.58C501.196 94.023 500.065 94.245 498.851 94.245C496.355 94.245 494.383 93.557 492.936 92.18C491.513 90.78 490.801 88.715 490.801 85.985V75.31H495.176V85.39C495.176 87.07 495.55 88.33 496.296 89.17C497.066 89.987 498.151 90.395 499.551 90.395C501.115 90.395 502.351 89.917 503.261 88.96C504.195 87.98 504.661 86.58 504.661 84.76V75.31H509.036ZM542.59 94.245C540.653 94.245 538.915 93.837 537.375 93.02C535.835 92.203 534.633 91.072 533.77 89.625C532.906 88.155 532.475 86.498 532.475 84.655C532.475 82.812 532.906 81.167 533.77 79.72C534.633 78.273 535.823 77.142 537.34 76.325C538.88 75.508 540.63 75.1 542.59 75.1C544.433 75.1 546.043 75.473 547.42 76.22C548.82 76.967 549.87 78.04 550.57 79.44L547.21 81.4C546.673 80.537 545.996 79.895 545.18 79.475C544.386 79.032 543.511 78.81 542.555 78.81C540.921 78.81 539.568 79.347 538.495 80.42C537.421 81.47 536.885 82.882 536.885 84.655C536.885 86.428 537.41 87.852 538.46 88.925C539.533 89.975 540.898 90.5 542.555 90.5C543.511 90.5 544.386 90.29 545.18 89.87C545.996 89.427 546.673 88.773 547.21 87.91L550.57 89.87C549.846 91.27 548.785 92.355 547.385 93.125C546.008 93.872 544.41 94.245 542.59 94.245ZM580.741 75.1C583.495 75.1 585.595 75.765 587.041 77.095C588.511 78.402 589.246 80.385 589.246 83.045V94H585.116V91.725C584.58 92.542 583.81 93.172 582.806 93.615C581.826 94.035 580.636 94.245 579.236 94.245C577.836 94.245 576.611 94.012 575.561 93.545C574.511 93.055 573.695 92.39 573.111 91.55C572.551 90.687 572.271 89.718 572.271 88.645C572.271 86.965 572.89 85.623 574.126 84.62C575.386 83.593 577.358 83.08 580.041 83.08H584.871V82.8C584.871 81.493 584.475 80.49 583.681 79.79C582.911 79.09 581.756 78.74 580.216 78.74C579.166 78.74 578.128 78.903 577.101 79.23C576.098 79.557 575.246 80.012 574.546 80.595L572.831 77.41C573.811 76.663 574.99 76.092 576.366 75.695C577.743 75.298 579.201 75.1 580.741 75.1ZM580.146 91.06C581.243 91.06 582.211 90.815 583.051 90.325C583.915 89.812 584.521 89.088 584.871 88.155V85.985H580.356C577.836 85.985 576.576 86.813 576.576 88.47C576.576 89.263 576.891 89.893 577.521 90.36C578.151 90.827 579.026 91.06 580.146 91.06ZM625.346 92.985C624.833 93.405 624.203 93.72 623.456 93.93C622.733 94.14 621.963 94.245 621.146 94.245C619.093 94.245 617.506 93.708 616.386 92.635C615.266 91.562 614.706 89.998 614.706 87.945V78.95H611.626V75.45H614.706V71.18H619.081V75.45H624.086V78.95H619.081V87.84C619.081 88.75 619.303 89.45 619.746 89.94C620.19 90.407 620.831 90.64 621.671 90.64C622.651 90.64 623.468 90.383 624.121 89.87L625.346 92.985ZM648.195 75.31H652.57V94H648.195V75.31ZM650.4 72.23C649.607 72.23 648.942 71.985 648.405 71.495C647.869 70.982 647.6 70.352 647.6 69.605C647.6 68.858 647.869 68.24 648.405 67.75C648.942 67.237 649.607 66.98 650.4 66.98C651.194 66.98 651.859 67.225 652.395 67.715C652.932 68.182 653.2 68.777 653.2 69.5C653.2 70.27 652.932 70.923 652.395 71.46C651.882 71.973 651.217 72.23 650.4 72.23ZM685.962 94.245C684.072 94.245 682.369 93.837 680.852 93.02C679.336 92.203 678.146 91.072 677.282 89.625C676.442 88.155 676.022 86.498 676.022 84.655C676.022 82.812 676.442 81.167 677.282 79.72C678.146 78.273 679.336 77.142 680.852 76.325C682.369 75.508 684.072 75.1 685.962 75.1C687.876 75.1 689.591 75.508 691.107 76.325C692.624 77.142 693.802 78.273 694.642 79.72C695.506 81.167 695.937 82.812 695.937 84.655C695.937 86.498 695.506 88.155 694.642 89.625C693.802 91.072 692.624 92.203 691.107 93.02C689.591 93.837 687.876 94.245 685.962 94.245ZM685.962 90.5C687.572 90.5 688.902 89.963 689.952 88.89C691.002 87.817 691.527 86.405 691.527 84.655C691.527 82.905 691.002 81.493 689.952 80.42C688.902 79.347 687.572 78.81 685.962 78.81C684.352 78.81 683.022 79.347 681.972 80.42C680.946 81.493 680.432 82.905 680.432 84.655C680.432 86.405 680.946 87.817 681.972 88.89C683.022 89.963 684.352 90.5 685.962 90.5ZM729.976 75.1C732.333 75.1 734.223 75.788 735.646 77.165C737.069 78.542 737.781 80.583 737.781 83.29V94H733.406V83.85C733.406 82.217 733.021 80.992 732.251 80.175C731.481 79.335 730.384 78.915 728.961 78.915C727.351 78.915 726.079 79.405 725.146 80.385C724.213 81.342 723.746 82.73 723.746 84.55V94H719.371V75.31H723.536V77.725C724.259 76.862 725.169 76.208 726.266 75.765C727.363 75.322 728.599 75.1 729.976 75.1Z" fill="#2DA866"/>
<path d="M57.2903 23.685C29.7349 -0.428684 3.20312 3.28002 3.20312 3.28002L3.21055 22.3276C3.20312 42.5 3.21055 66.55 3.21055 66.55V82.193C39.2736 84.233 57.2977 97.843 57.2977 97.843H65.4568C91.6473 82.193 119.536 82.875 119.536 82.875V64.502V23.685V3.06482C74.6394 7.27792 65.7979 23.685 65.7979 23.685H57.2903Z" stroke="#2DA866" stroke-width="5"/>
<path d="M37.5586 11.7802C37.5586 11.7802 50.9098 13.2637 51.57 44.5647C52.2301 75.866 45.9179 83.78 45.9179 83.743C45.179 85.354 44.1087 86.791 42.777 87.96C41.4453 89.13 39.882 90.005 38.1891 90.53L41.8978 90.114C41.8978 90.114 47.0899 89.15 52.2227 81.54C52.2227 81.54 57.2516 74.36 59.2766 58.057C61.3015 41.7536 55.3602 27.2824 55.3602 27.2824C55.3602 27.2824 50.1681 13.4565 40.5255 11.7802H37.5586Z" fill="#2DA866"/>
<path d="M84.4893 11.7802C84.4893 11.7802 71.7389 13.2637 71.101 44.5647C70.4631 75.866 76.5305 83.78 76.486 83.743C77.1749 85.333 78.1917 86.759 79.4699 87.929C80.7481 89.098 82.2589 89.985 83.9033 90.53L80.3578 90.114C80.3578 90.114 75.4179 89.15 70.4928 81.54C70.4928 81.54 65.6938 74.36 63.7579 58.057C61.8219 41.7536 67.4665 27.2824 67.4665 27.2824C67.4665 27.2824 72.4139 13.4565 81.6336 11.7802H84.4893Z" fill="#2DA866"/>
<path d="M78.6532 88.274C78.6532 88.274 99.734 83.287 90.0867 69.798C89.0148 68.572 87.4981 67.053 85.713 65.689C81.4254 62.411 72.9365 57.535 64.3614 53.243L50.9627 45.2722L31.1328 30.5566" stroke="#2DA866" stroke-width="2"/>
<path d="M40.0078 21.2603C39.622 21.3813 39.1242 21.5222 38.9137 21.589C38.2594 21.7696 36.2476 22.3645 33.6323 23.1378C33.4923 23.1796 32.8981 23.3508 32.3205 23.524C31.2192 23.8434 30.9911 23.9164 30.3523 24.1074C30.1335 24.1731 29.53 24.3516 28.9969 24.505C28.4722 24.6595 27.878 24.8307 27.6851 24.8912C27.4933 24.9434 27.2662 25.0081 27.1708 25.0301C27.0587 25.05 26.8001 24.8917 26.3108 24.4858C24.8738 23.2889 23.1742 22.0344 22.5958 21.7355C22.0008 21.4347 21.1476 21.2452 20.7244 21.3279C20.0679 21.4577 19.796 22.0226 19.9687 22.8783C20.1246 23.6644 20.4678 24.0944 21.7976 25.1348C22.4116 25.6235 23.034 26.1131 23.1794 26.2322C23.7987 26.7468 24.2371 27.0874 24.662 27.401C24.9009 27.5822 25.0953 27.7831 25.0861 27.8578C25.0637 28.1079 25.0887 31.1872 25.1241 32.4052C25.1329 32.7434 25.1365 33.6035 25.1429 34.3039C25.141 35.0032 25.1461 36.1247 25.1555 36.8001C25.165 37.4755 25.1794 38.5898 25.1775 39.2891C25.1849 39.9811 25.201 40.8765 25.211 41.2738L25.2237 41.9918L26.2231 42.7724C26.7686 43.202 27.2422 43.5301 27.2702 43.5082C27.3531 43.451 27.7423 41.7291 28.7612 36.9495C28.9907 35.9074 29.2388 34.7834 29.3223 34.4481C29.4141 34.1139 29.5931 33.2763 29.7372 32.5861C29.8719 31.9031 30.0307 31.299 30.0721 31.2367C30.1404 31.1608 30.4478 31.3336 31.4201 31.9928C33.6596 33.5162 36.3354 35.3293 36.7312 35.6056C37.1976 35.9244 37.1839 35.83 37.0885 38.2455L37.02 40.0322L37.6652 40.5416C38.0579 40.8428 38.3477 41.0218 38.4037 40.9781C38.4503 40.9417 38.5888 40.6385 38.7231 40.3011C38.8584 39.9554 39.0784 39.401 39.2137 39.0552C39.3563 38.7188 39.5805 38.1312 39.7188 37.7606C39.8572 37.3899 40.0133 37.013 40.0753 36.9195C40.1364 36.8344 40.9632 36.144 41.906 35.4005C42.8489 34.6571 43.627 34.0197 43.6331 33.9699C43.6433 33.8869 42.4591 33.033 42.3013 33.0136C42.2515 33.0074 42.0078 33.0701 41.762 33.1494C41.5163 33.2286 40.9626 33.4132 40.5322 33.5541C40.1019 33.6949 39.4694 33.9035 39.1345 34.0223C38.7996 34.1412 38.4687 34.2268 38.394 34.2176C38.3193 34.2084 37.8092 33.8337 37.2565 33.3948C36.2757 32.5996 36.1385 32.4816 35.3042 31.7972C34.8751 31.4494 33.327 30.1967 32.4439 29.4979C31.6928 28.8912 31.6897 28.9161 32.2971 28.5695C32.5956 28.404 33.7099 27.7744 34.7795 27.1646C35.8492 26.5547 37.2806 25.745 37.9606 25.3569C42.9949 22.5302 42.8581 22.6145 42.7137 22.4871C42.6368 22.4271 42.1963 22.1031 41.7226 21.775C41.2573 21.448 40.8386 21.152 40.7929 21.1126C40.7555 21.0743 40.4018 21.1403 40.0078 21.2603Z" fill="#2DA866"/>
</svg>
